<svg xmlns="http://www.w3.org/2000/svg" viewBox="0 0 1677.21 292.53"><defs><style>.cls-1{fill:#bfa2db;}.cls-2{fill:#f0d9ff;}.cls-3{fill:#fff;}</style></defs><g id="Camada_2" data-name="Camada 2"><g id="Camada_1-2" data-name="Camada 1"><polygon class="cls-1" points="0 231.98 142.44 15.23 284.87 231.98 142.44 209.91 0 231.98"/><polygon class="cls-2" points="142.44 209.91 142.44 15.23 284.87 231.98 142.44 209.91"/><path class="cls-3" d="M310.37,256.64V238.18L326.19,236,400.75,43.36H425.5L498.75,236l15.67,2.19v18.46H453.19V238.18l16.11-2.78-14.06-39.26h-85.4l-14.5,39.26,16.11,2.78v18.46ZM378.78,172h67.67L415.1,85.25l-1.75-4.83h-.88l-1.76,4.83Z" transform="translate(0 -28.13)"/><path class="cls-3" d="M535.51,256.64V238.18l23.88-4.1V120.85l-23.88-4.1V98.14h49.81l1.9,20.66a51.86,51.86,0,0,1,19.63-17.43q12-6.15,27.83-6.16t27.18,7.33q11.34,7.32,17.06,22a58.84,58.84,0,0,1,19.78-21.39q12.3-7.91,28.71-7.91,24.32,0,38.38,16.63t14.06,50v72.21l23.88,4.1v18.46H727V238.18l23.88-4.1V161.57q0-23.43-8.06-33.18t-23.88-9.74q-15.09,0-24.24,10.62T684.05,156v78.07l23.88,4.1v18.46H631.32V238.18l23.87-4.1V161.57q0-22.26-8.27-32.59T623,118.65q-13.19,0-21.68,5.42a35,35,0,0,0-13,15.24v94.77l23.88,4.1v18.46Z" transform="translate(0 -28.13)"/><path class="cls-3" d="M895.13,259.72q-22,0-38.23-10a66.92,66.92,0,0,1-25.12-27.9q-8.87-17.88-8.86-41.31V174q0-22.54,9.3-40.35A74.65,74.65,0,0,1,857,105.54a59.6,59.6,0,0,1,33.77-10.33q21.39,0,35.81,8.79a55.27,55.27,0,0,1,21.76,24.69q7.32,15.88,7.32,37.42v18H852.8l-.44.73a71.5,71.5,0,0,0,5.35,27,42.65,42.65,0,0,0,14.57,18.53q9.53,6.74,22.85,6.74,14.65,0,25.71-4.18A59,59,0,0,0,940,221.48l11.28,18.75q-8.5,8.22-22.49,13.85T895.13,259.72Zm-41.45-98.15h73.09v-3.81a49.63,49.63,0,0,0-4-20.43,32.27,32.27,0,0,0-12-14.21q-8-5.19-20-5.2a29.57,29.57,0,0,0-17.58,5.64,43.31,43.31,0,0,0-13,15.31,64.16,64.16,0,0,0-6.73,22Z" transform="translate(0 -28.13)"/><path class="cls-3" d="M1034,259.13q-17.58,0-27.9-10.33t-10.33-33V119.53h-25V98.14h25V59.91h28.86V98.14h34.42v21.39h-34.42v96.24q0,11.43,4.54,16.85a15,15,0,0,0,12.15,5.42,76.49,76.49,0,0,0,11.43-1q6.3-.95,9.82-1.68l4,18.9a120.36,120.36,0,0,1-15.45,3.37A109.32,109.32,0,0,1,1034,259.13Z" transform="translate(0 -28.13)"/><path class="cls-3" d="M1081.32,256.64V238.18l23.87-4.1V50.83l-23.87-4.1V28.12h52.73v91.12a58,58,0,0,1,20.07-17.73,55.45,55.45,0,0,1,26.36-6.3q25.5,0,39.56,15.24t14.06,46.87v76.76l23.88,4.1v18.46h-76.62V238.18l23.88-4.1V157q0-19.62-8.42-29t-25.12-9.38a42.34,42.34,0,0,0-21.61,5.64,47,47,0,0,0-16,15.31v94.48l23.88,4.1v18.46Z" transform="translate(0 -28.13)"/><path class="cls-3" d="M1298.84,320.65a63.36,63.36,0,0,1-8.78-.8q-5.43-.81-8.35-1.54l2.93-22.7c1.65.19,3.95.36,6.88.51s4.93.22,6,.22a18.55,18.55,0,0,0,15-7q5.79-7,10.77-19.19l6.88-16.7-56.1-134.33-17-2.34V98.14h66.5v18.61l-19.19,2.93,30.91,79.25,7.47,20.65h.88l36.62-99.9-20.22-2.93V98.14h65.19v18.61l-16.41,2.34L1346.45,281a97.1,97.1,0,0,1-10.62,20.43,46.19,46.19,0,0,1-15.23,14.14Q1311.59,320.65,1298.84,320.65Z" transform="translate(0 -28.13)"/><path class="cls-3" d="M1503.19,259.72a132,132,0,0,1-29.88-3.23,174.37,174.37,0,0,1-29.59-10l-.3-37.64h21.83l5.42,22.7a86.91,86.91,0,0,0,15.89,4.91,85.24,85.24,0,0,0,16.63,1.54q17.58,0,25.2-6.74a21.42,21.42,0,0,0,7.61-16.7q0-9.37-7.69-15.89t-27.9-11.06q-28.71-6.6-42.26-17.65t-13.55-29.52a38,38,0,0,1,7.47-23.07q7.47-10.18,20.8-16.19t31.05-6q18,0,30.84,4.11a78.78,78.78,0,0,1,22.34,11l1.46,36.18h-21.68l-4.69-21.09a38.14,38.14,0,0,0-12.15-5.86,58,58,0,0,0-16.12-2q-13.47,0-21.9,6.3t-8.42,15.82a18.71,18.71,0,0,0,2.42,9.67q2.42,4.09,9.3,7.4t20.21,6.51q33.1,7.77,46.22,19.78a38.56,38.56,0,0,1,13.11,29.59A43.65,43.65,0,0,1,1550,246.17Q1535.13,259.71,1503.19,259.72Z" transform="translate(0 -28.13)"/><path class="cls-3" d="M1644.69,259.13q-17.57,0-27.9-10.33t-10.33-33V119.53h-25V98.14h25V59.91h28.86V98.14h34.42v21.39h-34.42v96.24q0,11.43,4.54,16.85A15.07,15.07,0,0,0,1652,238a76.36,76.36,0,0,0,11.42-1q6.3-.95,9.82-1.68l4,18.9a120.36,120.36,0,0,1-15.45,3.37A109.22,109.22,0,0,1,1644.69,259.13Z" transform="translate(0 -28.13)"/></g></g></svg>